<svg class="svg-icon" style="width: 1em;height: 1em;vertical-align: middle;fill: currentColor;overflow: hidden;" viewBox="0 0 1024 1024" version="1.1" xmlns="http://www.w3.org/2000/svg"><path d="M213.333333 128c-47.36 0-85.333333 37.973333-85.333333 85.333333v597.333334a85.333333 85.333333 0 0 0 85.333333 85.333333h597.333334a85.333333 85.333333 0 0 0 85.333333-85.333333V213.333333a85.333333 85.333333 0 0 0-85.333333-85.333333H213.333333z m156.501334 147.072c11.093333 0 20.394667 3.669333 27.818666 10.922667s11.178667 16.170667 11.178667 26.666666c0 14.506667-0.597333 36.352-1.749333 65.578667-0.938667 29.013333-1.408 50.773333-1.408 65.28 0 4.736-0.682667 13.909333-2.005334 27.477333a262.357333 262.357333 0 0 0-1.408 29.013334l109.994667-20.693334c42.965333-7.637333 79.957333-11.989333 111.061333-13.141333 0.768-12.8 2.048-47.146667 3.754667-103.082667 0.426667-14.72 4.906667-31.658667 13.525333-50.773333 10.666667-23.466667 22.741333-35.242667 36.309334-35.242667 10.112 0 19.114667 3.413333 26.922666 10.069334 8.405333 7.253333 12.586667 16.298667 12.586667 27.178666a33.066667 33.066667 0 0 1-1.066667 8.576c-3.84 13.952-5.76 26.112-5.76 36.437334 0 5.333333-0.597333 13.653333-1.749333 24.917333-0.981333 11.093333-1.408 19.328-1.408 24.661333 0 18.133333-0.938667 45.056-2.858667 80.768a1662.506667 1662.506667 0 0 0-2.901333 80.725334c0 13.952 1.066667 34.816 3.157333 62.506666 2.133333 27.690667 3.157333 48.469333 3.157334 62.421334a35.84 35.84 0 0 1-11.136 26.666666 38.101333 38.101333 0 0 1-27.733334 10.837334 42.666667 42.666667 0 0 1-29.269333-10.837334 33.152 33.152 0 0 1-12.373333-26.069333c0-13.952-0.64-34.901333-1.962667-62.762667a1687.637333 1687.637333 0 0 1-1.749333-62.72c0-10.922667 0.170667-20.565333 0.554666-28.970666-29.952 1.365333-66.986667 6.101333-111.061333 14.08-36.693333 6.698667-73.344 13.482667-109.994667 20.352-0.426667 12.970667-1.792 34.645333-4.096 64.981333a953.813333 953.813333 0 0 0-2.816 65.621333 35.84 35.84 0 0 1-11.178666 26.666667 38.101333 38.101333 0 0 1-27.733334 10.794667 38.314667 38.314667 0 0 1-27.861333-10.794667 35.84 35.84 0 0 1-11.178667-26.666667c0-19.328 1.621333-48.128 4.864-86.528 3.413333-38.4 5.12-67.2 5.12-86.485333 0-24.448 0.64-61.269333 1.792-110.336 1.152-49.28 1.706667-86.058667 1.706667-110.506667a35.84 35.84 0 0 1 11.221333-26.666666 38.186667 38.186667 0 0 1 27.733334-10.922667z" fill="#4CAF50" /></svg>